<mxfile host="app.diagrams.net" modified="2023-08-01T06:22:19.211Z" agent="Mozilla/5.0 (Macintosh; Intel Mac OS X 10_15_7) AppleWebKit/537.36 (KHTML, like Gecko) Chrome/114.0.0.0 Safari/537.36" version="21.6.5" etag="NWfyM9dcTco5FULjQTVl" type="github">
  <diagram name="第 1 页" id="uBD3MsCTueKJfPrJdjAK">
    <mxGraphModel>
      <root>
        <mxCell id="0" />
        <mxCell id="1" parent="0" />
      </root>
    </mxGraphModel>
  </diagram>
</mxfile>
